<mxfile host="Electron" modified="2024-04-01T05:35:19.844Z" agent="Mozilla/5.0 (Windows NT 10.0; Win64; x64) AppleWebKit/537.36 (KHTML, like Gecko) draw.io/23.1.5 Chrome/120.0.6099.109 Electron/28.1.0 Safari/537.36" etag="tHR8-Jcg0NXCyyzdb_HG" version="23.1.5" type="device">
  <diagram name="Страница — 1" id="RYfDwq9FdmFb0eyTHPvp">
    <mxGraphModel dx="2261" dy="884" grid="1" gridSize="10" guides="1" tooltips="1" connect="1" arrows="1" fold="1" page="1" pageScale="1" pageWidth="827" pageHeight="1169" math="0" shadow="0">
      <root>
        <mxCell id="0" />
        <mxCell id="1" parent="0" />
        <mxCell id="RaZzRavV0NgVbYtMVuhh-61" value="Тариф" style="whiteSpace=wrap;html=1;align=center;gradientColor=none;" vertex="1" parent="1">
          <mxGeometry x="20" y="430" width="100" height="40" as="geometry" />
        </mxCell>
        <mxCell id="RaZzRavV0NgVbYtMVuhh-62" style="edgeStyle=orthogonalEdgeStyle;rounded=0;orthogonalLoop=1;jettySize=auto;html=1;entryX=0;entryY=0.5;entryDx=0;entryDy=0;endArrow=none;endFill=0;" edge="1" parent="1" source="RaZzRavV0NgVbYtMVuhh-68" target="RaZzRavV0NgVbYtMVuhh-64">
          <mxGeometry relative="1" as="geometry" />
        </mxCell>
        <mxCell id="RaZzRavV0NgVbYtMVuhh-63" value="Устанавливается" style="shape=rhombus;perimeter=rhombusPerimeter;whiteSpace=wrap;html=1;align=center;" vertex="1" parent="1">
          <mxGeometry x="220" y="420" width="120" height="60" as="geometry" />
        </mxCell>
        <mxCell id="RaZzRavV0NgVbYtMVuhh-64" value="Начисление" style="whiteSpace=wrap;html=1;align=center;" vertex="1" parent="1">
          <mxGeometry x="440" y="430" width="100" height="40" as="geometry" />
        </mxCell>
        <mxCell id="RaZzRavV0NgVbYtMVuhh-65" value="" style="endArrow=none;html=1;rounded=0;entryX=0;entryY=0.5;entryDx=0;entryDy=0;exitX=1;exitY=0.5;exitDx=0;exitDy=0;startArrow=none;startFill=0;endFill=0;" edge="1" parent="1" source="RaZzRavV0NgVbYtMVuhh-71" target="RaZzRavV0NgVbYtMVuhh-63">
          <mxGeometry relative="1" as="geometry">
            <mxPoint x="20" y="450" as="sourcePoint" />
            <mxPoint x="180" y="450" as="targetPoint" />
          </mxGeometry>
        </mxCell>
        <mxCell id="RaZzRavV0NgVbYtMVuhh-66" value="" style="edgeStyle=orthogonalEdgeStyle;rounded=0;orthogonalLoop=1;jettySize=auto;html=1;entryX=0;entryY=0.5;entryDx=0;entryDy=0;endArrow=none;endFill=0;" edge="1" parent="1" source="RaZzRavV0NgVbYtMVuhh-63" target="RaZzRavV0NgVbYtMVuhh-68">
          <mxGeometry relative="1" as="geometry">
            <mxPoint x="340" y="450" as="sourcePoint" />
            <mxPoint x="440" y="450" as="targetPoint" />
          </mxGeometry>
        </mxCell>
        <mxCell id="RaZzRavV0NgVbYtMVuhh-67" value="М" style="edgeLabel;html=1;align=center;verticalAlign=middle;resizable=0;points=[];" vertex="1" connectable="0" parent="RaZzRavV0NgVbYtMVuhh-66">
          <mxGeometry x="-0.0857" relative="1" as="geometry">
            <mxPoint x="-17" y="-10" as="offset" />
          </mxGeometry>
        </mxCell>
        <mxCell id="RaZzRavV0NgVbYtMVuhh-68" value="" style="ellipse;whiteSpace=wrap;html=1;aspect=fixed;fillColor=#000000;" vertex="1" parent="1">
          <mxGeometry x="400" y="435" width="30" height="30" as="geometry" />
        </mxCell>
        <mxCell id="RaZzRavV0NgVbYtMVuhh-69" value="" style="endArrow=none;html=1;rounded=0;entryX=0;entryY=0.5;entryDx=0;entryDy=0;exitX=1;exitY=0.5;exitDx=0;exitDy=0;startArrow=none;startFill=0;endFill=0;" edge="1" parent="1" source="RaZzRavV0NgVbYtMVuhh-61" target="RaZzRavV0NgVbYtMVuhh-71">
          <mxGeometry relative="1" as="geometry">
            <mxPoint x="120" y="450" as="sourcePoint" />
            <mxPoint x="220" y="450" as="targetPoint" />
          </mxGeometry>
        </mxCell>
        <mxCell id="RaZzRavV0NgVbYtMVuhh-70" value="1" style="edgeLabel;html=1;align=center;verticalAlign=middle;resizable=0;points=[];" vertex="1" connectable="0" parent="RaZzRavV0NgVbYtMVuhh-69">
          <mxGeometry x="-0.0286" relative="1" as="geometry">
            <mxPoint x="85" y="-10" as="offset" />
          </mxGeometry>
        </mxCell>
        <mxCell id="RaZzRavV0NgVbYtMVuhh-72" style="rounded=0;orthogonalLoop=1;jettySize=auto;html=1;entryX=0;entryY=0.5;entryDx=0;entryDy=0;endArrow=none;endFill=0;" edge="1" parent="1" source="RaZzRavV0NgVbYtMVuhh-73" target="RaZzRavV0NgVbYtMVuhh-79">
          <mxGeometry relative="1" as="geometry" />
        </mxCell>
        <mxCell id="RaZzRavV0NgVbYtMVuhh-73" value="" style="ellipse;whiteSpace=wrap;html=1;aspect=fixed;fillColor=#000000;" vertex="1" parent="1">
          <mxGeometry x="130" y="370" width="30" height="30" as="geometry" />
        </mxCell>
        <mxCell id="RaZzRavV0NgVbYtMVuhh-74" value="" style="ellipse;whiteSpace=wrap;html=1;aspect=fixed;fillColor=#000000;" vertex="1" parent="1">
          <mxGeometry x="130" y="310" width="30" height="30" as="geometry" />
        </mxCell>
        <mxCell id="RaZzRavV0NgVbYtMVuhh-75" value="" style="ellipse;whiteSpace=wrap;html=1;aspect=fixed;fillColor=#000000;" vertex="1" parent="1">
          <mxGeometry x="130" y="250" width="30" height="30" as="geometry" />
        </mxCell>
        <mxCell id="RaZzRavV0NgVbYtMVuhh-76" style="rounded=0;orthogonalLoop=1;jettySize=auto;html=1;entryX=0;entryY=0.5;entryDx=0;entryDy=0;endArrow=none;endFill=0;" edge="1" parent="1" source="RaZzRavV0NgVbYtMVuhh-78" target="RaZzRavV0NgVbYtMVuhh-83">
          <mxGeometry relative="1" as="geometry" />
        </mxCell>
        <mxCell id="RaZzRavV0NgVbYtMVuhh-77" style="rounded=0;orthogonalLoop=1;jettySize=auto;html=1;exitX=1;exitY=0.5;exitDx=0;exitDy=0;entryX=0;entryY=0.5;entryDx=0;entryDy=0;endArrow=none;endFill=0;" edge="1" parent="1" source="RaZzRavV0NgVbYtMVuhh-78" target="RaZzRavV0NgVbYtMVuhh-82">
          <mxGeometry relative="1" as="geometry" />
        </mxCell>
        <mxCell id="RaZzRavV0NgVbYtMVuhh-78" value="" style="ellipse;whiteSpace=wrap;html=1;aspect=fixed;fillColor=#000000;" vertex="1" parent="1">
          <mxGeometry x="130" y="190" width="30" height="30" as="geometry" />
        </mxCell>
        <mxCell id="RaZzRavV0NgVbYtMVuhh-79" value="" style="ellipse;whiteSpace=wrap;html=1;aspect=fixed;fillColor=#000000;" vertex="1" parent="1">
          <mxGeometry x="400" y="370" width="30" height="30" as="geometry" />
        </mxCell>
        <mxCell id="RaZzRavV0NgVbYtMVuhh-80" value="" style="ellipse;whiteSpace=wrap;html=1;aspect=fixed;fillColor=#000000;" vertex="1" parent="1">
          <mxGeometry x="400" y="310" width="30" height="30" as="geometry" />
        </mxCell>
        <mxCell id="RaZzRavV0NgVbYtMVuhh-81" style="rounded=0;orthogonalLoop=1;jettySize=auto;html=1;entryX=1;entryY=0.5;entryDx=0;entryDy=0;endArrow=none;endFill=0;exitX=0;exitY=0.5;exitDx=0;exitDy=0;" edge="1" parent="1" source="RaZzRavV0NgVbYtMVuhh-80" target="RaZzRavV0NgVbYtMVuhh-74">
          <mxGeometry relative="1" as="geometry" />
        </mxCell>
        <mxCell id="RaZzRavV0NgVbYtMVuhh-82" value="" style="ellipse;whiteSpace=wrap;html=1;aspect=fixed;fillColor=#000000;" vertex="1" parent="1">
          <mxGeometry x="400" y="250" width="30" height="30" as="geometry" />
        </mxCell>
        <mxCell id="RaZzRavV0NgVbYtMVuhh-83" value="" style="ellipse;whiteSpace=wrap;html=1;aspect=fixed;fillColor=#000000;" vertex="1" parent="1">
          <mxGeometry x="400" y="190" width="30" height="30" as="geometry" />
        </mxCell>
        <mxCell id="RaZzRavV0NgVbYtMVuhh-84" value="&lt;font style=&quot;font-size: 14px;&quot;&gt;Тариф&lt;/font&gt;" style="text;html=1;align=center;verticalAlign=middle;resizable=0;points=[];autosize=1;strokeColor=none;fillColor=none;" vertex="1" parent="1">
          <mxGeometry x="20" y="130" width="70" height="30" as="geometry" />
        </mxCell>
        <mxCell id="RaZzRavV0NgVbYtMVuhh-85" value="&lt;font style=&quot;font-size: 14px;&quot;&gt;Устанавливается&lt;/font&gt;" style="text;html=1;align=center;verticalAlign=middle;resizable=0;points=[];autosize=1;strokeColor=none;fillColor=none;" vertex="1" parent="1">
          <mxGeometry x="215" y="130" width="130" height="30" as="geometry" />
        </mxCell>
        <mxCell id="RaZzRavV0NgVbYtMVuhh-86" value="&lt;font style=&quot;font-size: 14px;&quot;&gt;Начисление&lt;/font&gt;" style="text;html=1;align=center;verticalAlign=middle;resizable=0;points=[];autosize=1;strokeColor=none;fillColor=none;" vertex="1" parent="1">
          <mxGeometry x="440" y="130" width="100" height="30" as="geometry" />
        </mxCell>
        <mxCell id="RaZzRavV0NgVbYtMVuhh-87" value="&lt;font style=&quot;font-size: 14px;&quot;&gt;Тепло в каждый дом&lt;/font&gt;" style="text;html=1;align=right;verticalAlign=middle;resizable=0;points=[];autosize=1;strokeColor=none;fillColor=none;" vertex="1" parent="1">
          <mxGeometry x="-50" y="190" width="160" height="30" as="geometry" />
        </mxCell>
        <mxCell id="RaZzRavV0NgVbYtMVuhh-88" value="&lt;span style=&quot;font-size: 14px;&quot;&gt;Жаркие страны&lt;/span&gt;" style="text;html=1;align=right;verticalAlign=middle;resizable=0;points=[];autosize=1;strokeColor=none;fillColor=none;" vertex="1" parent="1">
          <mxGeometry x="-10" y="250" width="120" height="30" as="geometry" />
        </mxCell>
        <mxCell id="RaZzRavV0NgVbYtMVuhh-89" value="&lt;font style=&quot;font-size: 14px;&quot;&gt;Зимой как летом&lt;/font&gt;" style="text;html=1;align=right;verticalAlign=middle;resizable=0;points=[];autosize=1;strokeColor=none;fillColor=none;" vertex="1" parent="1">
          <mxGeometry x="-20" y="310" width="130" height="30" as="geometry" />
        </mxCell>
        <mxCell id="RaZzRavV0NgVbYtMVuhh-90" value="&lt;span style=&quot;font-size: 14px;&quot;&gt;31 градус по цельсию&lt;/span&gt;" style="text;html=1;align=right;verticalAlign=middle;resizable=0;points=[];autosize=1;strokeColor=none;fillColor=none;" vertex="1" parent="1">
          <mxGeometry x="-50" y="370" width="160" height="30" as="geometry" />
        </mxCell>
        <mxCell id="RaZzRavV0NgVbYtMVuhh-91" value="&lt;span style=&quot;font-size: 14px;&quot;&gt;Номер 2298&lt;/span&gt;" style="text;html=1;align=left;verticalAlign=middle;resizable=0;points=[];autosize=1;strokeColor=none;fillColor=none;" vertex="1" parent="1">
          <mxGeometry x="450" y="190" width="100" height="30" as="geometry" />
        </mxCell>
        <mxCell id="RaZzRavV0NgVbYtMVuhh-92" value="&lt;span style=&quot;font-size: 14px;&quot;&gt;Номер 1356&lt;/span&gt;" style="text;html=1;align=left;verticalAlign=middle;resizable=0;points=[];autosize=1;strokeColor=none;fillColor=none;" vertex="1" parent="1">
          <mxGeometry x="450" y="250" width="100" height="30" as="geometry" />
        </mxCell>
        <mxCell id="RaZzRavV0NgVbYtMVuhh-93" value="&lt;span style=&quot;font-size: 14px;&quot;&gt;Номер 2987&lt;/span&gt;" style="text;html=1;align=left;verticalAlign=middle;resizable=0;points=[];autosize=1;strokeColor=none;fillColor=none;" vertex="1" parent="1">
          <mxGeometry x="450" y="310" width="100" height="30" as="geometry" />
        </mxCell>
        <mxCell id="RaZzRavV0NgVbYtMVuhh-94" value="&lt;span style=&quot;font-size: 14px;&quot;&gt;Номер 2709&lt;/span&gt;" style="text;html=1;align=left;verticalAlign=middle;resizable=0;points=[];autosize=1;strokeColor=none;fillColor=none;" vertex="1" parent="1">
          <mxGeometry x="450" y="370" width="100" height="30" as="geometry" />
        </mxCell>
        <mxCell id="RaZzRavV0NgVbYtMVuhh-95" value="&lt;span style=&quot;font-size: 14px;&quot;&gt;R2&lt;/span&gt;" style="text;html=1;align=center;verticalAlign=middle;resizable=0;points=[];autosize=1;strokeColor=none;fillColor=none;" vertex="1" parent="1">
          <mxGeometry x="260" y="390" width="40" height="30" as="geometry" />
        </mxCell>
        <mxCell id="RaZzRavV0NgVbYtMVuhh-71" value="" style="ellipse;whiteSpace=wrap;html=1;aspect=fixed;fillColor=#000000;" vertex="1" parent="1">
          <mxGeometry x="130" y="435" width="30" height="30" as="geometry" />
        </mxCell>
        <mxCell id="RaZzRavV0NgVbYtMVuhh-97" value="" style="rounded=0;whiteSpace=wrap;html=1;fillColor=none;" vertex="1" parent="1">
          <mxGeometry x="390" y="430" width="50" height="40" as="geometry" />
        </mxCell>
      </root>
    </mxGraphModel>
  </diagram>
</mxfile>
